<svg xmlns="http://www.w3.org/2000/svg" width="760" height="360" viewBox="0 0 760 360" font-family="Inter, sans-serif">
<rect width="760" height="360" fill="#131313"/>
<text x="64" y="24" fill="#e4e2e1" font-size="15" font-weight="600">tariff_pricing.20260926T080035Z: train score by program (JPY M)</text>
<line x1="64" y1="40.0" x2="590" y2="40.0" stroke="#2a2f38"/>
<text x="56" y="44.0" fill="#a0a3a8" font-size="11" text-anchor="end">-2033.2</text>
<line x1="64" y1="94.4" x2="590" y2="94.4" stroke="#2a2f38"/>
<text x="56" y="98.4" fill="#a0a3a8" font-size="11" text-anchor="end">-3532.3</text>
<line x1="64" y1="148.8" x2="590" y2="148.8" stroke="#2a2f38"/>
<text x="56" y="152.8" fill="#a0a3a8" font-size="11" text-anchor="end">-5031.3</text>
<line x1="64" y1="203.2" x2="590" y2="203.2" stroke="#2a2f38"/>
<text x="56" y="207.2" fill="#a0a3a8" font-size="11" text-anchor="end">-6530.3</text>
<line x1="64" y1="257.6" x2="590" y2="257.6" stroke="#2a2f38"/>
<text x="56" y="261.6" fill="#a0a3a8" font-size="11" text-anchor="end">-8029.4</text>
<line x1="64" y1="312.0" x2="590" y2="312.0" stroke="#2a2f38"/>
<text x="56" y="316.0" fill="#a0a3a8" font-size="11" text-anchor="end">-9528.4</text>
<text x="64.0" y="330" fill="#a0a3a8" font-size="11" text-anchor="middle">0</text>
<text x="169.2" y="330" fill="#a0a3a8" font-size="11" text-anchor="middle">8</text>
<text x="274.4" y="330" fill="#a0a3a8" font-size="11" text-anchor="middle">16</text>
<text x="379.6" y="330" fill="#a0a3a8" font-size="11" text-anchor="middle">24</text>
<text x="484.8" y="330" fill="#a0a3a8" font-size="11" text-anchor="middle">32</text>
<text x="590.0" y="330" fill="#a0a3a8" font-size="11" text-anchor="middle">40</text>
<text x="327.0" y="352" fill="#a0a3a8" font-size="12" text-anchor="middle">program index</text>
<text x="14" y="176.0" fill="#a0a3a8" font-size="12" transform="rotate(-90 14 176.0)" text-anchor="middle">score (JPY M)</text>
<circle cx="64.0" cy="285.6" r="2.2" fill="#7fd1c7" fill-opacity="0.6"/>
<circle cx="103.4" cy="251.5" r="2.2" fill="#7fd1c7" fill-opacity="0.6"/>
<circle cx="116.6" cy="312.0" r="2.2" fill="#7fd1c7" fill-opacity="0.6"/>
<circle cx="129.8" cy="240.1" r="2.2" fill="#7fd1c7" fill-opacity="0.6"/>
<circle cx="142.9" cy="292.5" r="2.2" fill="#7fd1c7" fill-opacity="0.6"/>
<circle cx="156.1" cy="235.9" r="2.2" fill="#7fd1c7" fill-opacity="0.6"/>
<circle cx="169.2" cy="175.0" r="2.2" fill="#7fd1c7" fill-opacity="0.6"/>
<circle cx="182.4" cy="251.5" r="2.2" fill="#7fd1c7" fill-opacity="0.6"/>
<circle cx="195.5" cy="172.2" r="2.2" fill="#7fd1c7" fill-opacity="0.6"/>
<circle cx="208.7" cy="160.5" r="2.2" fill="#7fd1c7" fill-opacity="0.6"/>
<circle cx="221.8" cy="163.3" r="2.2" fill="#7fd1c7" fill-opacity="0.6"/>
<circle cx="235.0" cy="126.1" r="2.2" fill="#7fd1c7" fill-opacity="0.6"/>
<circle cx="248.1" cy="162.4" r="2.2" fill="#7fd1c7" fill-opacity="0.6"/>
<circle cx="261.2" cy="163.3" r="2.2" fill="#7fd1c7" fill-opacity="0.6"/>
<circle cx="274.4" cy="126.1" r="2.2" fill="#7fd1c7" fill-opacity="0.6"/>
<circle cx="287.5" cy="111.4" r="2.2" fill="#7fd1c7" fill-opacity="0.6"/>
<circle cx="300.7" cy="127.7" r="2.2" fill="#7fd1c7" fill-opacity="0.6"/>
<circle cx="313.9" cy="120.2" r="2.2" fill="#7fd1c7" fill-opacity="0.6"/>
<circle cx="327.0" cy="111.4" r="2.2" fill="#7fd1c7" fill-opacity="0.6"/>
<circle cx="340.2" cy="108.5" r="2.2" fill="#7fd1c7" fill-opacity="0.6"/>
<circle cx="353.3" cy="82.8" r="2.2" fill="#7fd1c7" fill-opacity="0.6"/>
<circle cx="366.4" cy="131.8" r="2.2" fill="#7fd1c7" fill-opacity="0.6"/>
<circle cx="379.6" cy="94.0" r="2.2" fill="#7fd1c7" fill-opacity="0.6"/>
<circle cx="392.8" cy="108.5" r="2.2" fill="#7fd1c7" fill-opacity="0.6"/>
<circle cx="405.9" cy="83.3" r="2.2" fill="#7fd1c7" fill-opacity="0.6"/>
<circle cx="419.1" cy="92.6" r="2.2" fill="#7fd1c7" fill-opacity="0.6"/>
<circle cx="432.2" cy="82.9" r="2.2" fill="#7fd1c7" fill-opacity="0.6"/>
<circle cx="445.3" cy="64.4" r="2.2" fill="#7fd1c7" fill-opacity="0.6"/>
<circle cx="458.5" cy="82.8" r="2.2" fill="#7fd1c7" fill-opacity="0.6"/>
<circle cx="471.7" cy="64.9" r="2.2" fill="#7fd1c7" fill-opacity="0.6"/>
<circle cx="484.8" cy="64.4" r="2.2" fill="#7fd1c7" fill-opacity="0.6"/>
<circle cx="497.9" cy="82.8" r="2.2" fill="#7fd1c7" fill-opacity="0.6"/>
<circle cx="511.1" cy="57.7" r="2.2" fill="#7fd1c7" fill-opacity="0.6"/>
<circle cx="524.2" cy="100.0" r="2.2" fill="#7fd1c7" fill-opacity="0.6"/>
<circle cx="537.4" cy="48.6" r="2.2" fill="#7fd1c7" fill-opacity="0.6"/>
<circle cx="550.5" cy="59.6" r="2.2" fill="#7fd1c7" fill-opacity="0.6"/>
<circle cx="576.9" cy="40.0" r="2.2" fill="#7fd1c7" fill-opacity="0.6"/>
<circle cx="590.0" cy="59.6" r="2.2" fill="#7fd1c7" fill-opacity="0.6"/>
<line x1="602" y1="52" x2="624" y2="52" stroke="#7fd1c7" stroke-width="2"/>
<text x="630" y="56" fill="#e4e2e1" font-size="11">feasible candidates</text>
<polyline points="64.0,285.6 77.2,285.6 90.3,285.6 103.4,251.5 116.6,251.5 129.8,240.1 142.9,240.1 156.1,235.9 169.2,175.0 182.4,175.0 195.5,172.2 208.7,160.5 221.8,160.5 235.0,126.1 248.1,126.1 261.2,126.1 274.4,126.1 287.5,111.4 300.7,111.4 313.9,111.4 327.0,111.4 340.2,108.5 353.3,82.8 366.4,82.8 379.6,82.8 392.8,82.8 405.9,82.8 419.1,82.8 432.2,82.8 445.3,64.4 458.5,64.4 471.7,64.4 484.8,64.4 497.9,64.4 511.1,57.7 524.2,57.7 537.4,48.6 550.5,48.6 563.7,48.6 576.9,40.0 590.0,40.0" fill="none" stroke="#e0a458" stroke-width="2"/>
<line x1="602" y1="72" x2="624" y2="72" stroke="#e0a458" stroke-width="2"/>
<text x="630" y="76" fill="#e4e2e1" font-size="11">best so far</text>
<polyline points="64.0,285.6 590.0,285.6" fill="none" stroke="#a7caed" stroke-width="2" stroke-dasharray="5 4"/>
<line x1="602" y1="92" x2="624" y2="92" stroke="#a7caed" stroke-width="2" stroke-dasharray="5 4"/>
<text x="630" y="96" fill="#e4e2e1" font-size="11">seed</text>
</svg>